<svg width="53" height="52" viewBox="0 0 53 52" fill="none" xmlns="http://www.w3.org/2000/svg">
<path d="M16.9032 0.085083C13.4558 0.215525 11.1078 0.700022 8.853 1.74355C6.47707 2.84299 4.15704 4.97664 2.94578 7.17551C2.07927 8.75013 1.38978 10.9863 1.11026 13.1665C0.905279 14.7691 0.784153 19.2134 0.79347 25.7448C0.79347 34.8105 0.933231 37.8572 1.455 40.0934C2.57309 44.8917 5.49875 48.4323 9.70088 50.0535C12.7197 51.2182 15.0491 51.4138 26.5001 51.4138C36.097 51.4138 38.5382 51.302 40.8768 50.7523C45.1815 49.746 48.573 47.2117 50.3433 43.6898C51.0887 42.2177 51.685 40.0934 51.9366 38.0529C52.1322 36.4689 52.2068 33.3477 52.2068 27.4219C52.2068 19.6886 52.0856 14.3125 51.8993 13.0267C51.1166 7.80908 48.5171 3.86789 44.5199 1.86468C42.2465 0.727973 39.8519 0.234159 35.8175 0.0757658C33.1993 -0.026724 19.6146 -0.026724 16.9032 0.085083ZM37.3083 4.81825C38.3611 4.93005 39.6003 5.09776 40.0569 5.19094C42.1533 5.61953 43.9329 6.65374 45.0883 8.10724C45.7125 8.8992 46.43 10.185 46.7281 11.0422C46.9797 11.7782 47.3431 13.6976 47.4735 14.9368C47.6226 16.381 47.6971 31.0277 47.5667 33.7204C47.4363 36.3944 47.1567 38.8821 46.8493 39.9163C46.0946 42.5438 44.6783 44.2302 42.1999 45.4694C40.7837 46.1775 39.0879 46.5129 36.0038 46.7086C33.3484 46.8763 20.0152 46.9043 17.8536 46.7552C15.5056 46.5875 13.2601 46.2986 12.3377 46.0564C11.2196 45.7489 9.93382 45.1154 9.08594 44.4445C8.07966 43.6339 6.93362 42.0407 6.44912 40.7735C6.09506 39.8232 5.61987 37.3541 5.51738 35.9006C5.3683 33.7017 5.3124 20.8253 5.43352 18.1046C5.56397 15.4492 5.82485 12.859 6.08574 11.7689C6.55161 9.8682 7.54857 8.21904 8.91822 7.12892C11.0612 5.42387 12.9247 4.9021 18.0679 4.60395C18.3754 4.58532 22.4005 4.58532 27.0126 4.59463C34.951 4.61327 35.5007 4.62258 37.3083 4.81825Z" fill="white"/>
<path d="M39.5917 8.82843C38.688 9.06137 37.8214 9.77879 37.3928 10.6546C37.132 11.195 37.104 11.3161 37.1413 11.9777C37.1785 12.8721 37.4208 13.4218 38.073 14.0554C38.7718 14.7449 39.2377 14.9406 40.1974 14.9406C41.1477 14.9406 41.6416 14.7356 42.3311 14.0647C43.328 13.0957 43.5796 11.81 43.0299 10.636C42.7783 10.1142 41.9956 9.33157 41.4739 9.08C40.9521 8.81912 40.0576 8.70731 39.5917 8.82843Z" fill="white"/>
<path d="M24.7895 12.5743C20.5035 13.0308 16.6741 15.6956 14.6242 19.6461C13.7391 21.3698 13.3198 22.9537 13.208 25.0128C12.9471 29.7926 15.0715 34.0319 19.078 36.7153C21.37 38.2433 23.5037 38.8769 26.4014 38.8676C28.6749 38.8676 30.5011 38.4669 32.29 37.5725C35.0386 36.2028 37.4518 33.6033 38.6444 30.715C40.0234 27.3887 39.8743 23.0096 38.2718 19.8138C37.4332 18.1181 35.7188 16.0962 34.0976 14.8757C31.6937 13.0681 28.2369 12.2109 24.7895 12.5743ZM27.8177 17.177C31.1253 17.6708 33.8833 20.1958 34.7498 23.5221C34.9454 24.2768 34.992 24.6588 34.992 25.6557C35.0014 28.0596 34.2653 29.8671 32.5695 31.6001C31.3117 32.8859 29.8488 33.7058 28.2463 34.0319C27.3425 34.2183 25.5349 34.2276 24.6125 34.0506C22.0968 33.5661 19.6743 31.7026 18.5655 29.3826C17.3356 26.8297 17.5126 23.5593 19.0127 21.1462C19.4879 20.3821 20.783 19.0125 21.4725 18.5466C23.336 17.2888 25.4883 16.823 27.8177 17.177Z" fill="white"/>
</svg>
