<svg width="51" height="51" viewBox="0 0 51 51" fill="none" xmlns="http://www.w3.org/2000/svg">
<path d="M43.5285 7.46605C33.5686 -2.49079 17.4229 -2.4884 7.46605 7.47153C-2.49079 17.4315 -2.4884 33.5771 7.47152 43.5339C17.4314 53.4908 33.5771 53.4884 43.5339 43.5285C48.3158 38.7451 51.0014 32.2581 50.9999 25.4945C50.9985 18.732 48.311 12.2471 43.5285 7.46605ZM38.6188 35.5212C38.6177 35.5223 38.6166 35.5235 38.6154 35.5246V35.5161L37.3234 36.7996C35.6525 38.4916 33.2189 39.1878 30.9059 38.6356C28.5755 38.0118 26.3602 37.0189 24.3439 35.6946C22.4707 34.4974 20.7347 33.0979 19.1674 31.5211C17.7254 30.0896 16.4299 28.5178 15.2999 26.8291C14.064 25.012 13.0857 23.0326 12.3929 20.9471C11.5987 18.4971 12.2568 15.8087 14.0929 14.0026L15.6059 12.4896C16.0266 12.0671 16.7101 12.0656 17.1325 12.4863C17.1336 12.4873 17.1348 12.4884 17.1359 12.4896L21.9129 17.2666C22.3354 17.6872 22.3369 18.3708 21.9163 18.7932C21.9152 18.7943 21.9141 18.7954 21.9129 18.7966L19.1079 21.6016C18.303 22.3977 18.2018 23.6627 18.8699 24.5766C19.8844 25.969 21.0071 27.2791 22.2274 28.4951C23.588 29.8616 25.0671 31.1046 26.6474 32.2097C27.5605 32.8466 28.7984 32.7392 29.5883 31.9547L32.2998 29.2007C32.7205 28.7781 33.404 28.7766 33.8264 29.1973C33.8275 29.1984 33.8286 29.1995 33.8298 29.2007L38.6153 33.9947C39.038 34.4152 39.0395 35.0986 38.6188 35.5212Z" fill="white"/>
</svg>
