<svg width="52" height="52" viewBox="0 0 52 52" fill="none" xmlns="http://www.w3.org/2000/svg">
<path d="M23.1288 0.245957C9.16398 1.56915 -1.37899 14.2992 0.146965 28.0558C0.424412 30.7478 1.21051 33.7592 2.18157 35.858L2.78271 37.1812L1.37235 43.9341C0.0313625 50.4816 0.00824196 50.7097 0.401291 51.0976C0.79434 51.4854 0.933064 51.5082 2.18157 51.2116C2.92143 51.0291 5.95022 50.3219 8.90965 49.6375C14.1118 48.4055 14.343 48.3827 15.0366 48.7249C18.4816 50.5044 24.0074 51.3713 28.3771 50.8922C37.4866 49.8428 45.1627 44.436 48.9776 36.4056C55.7519 22.1242 47.8215 5.08245 32.4926 1.02162C30.8048 0.565348 25.7183 -0.119061 25.1403 0.0178206C25.0709 0.0406343 24.1692 0.131889 23.1288 0.245957ZM28.3078 5.72123C39.6831 7.24974 47.5903 17.8581 45.6251 28.9227C44.2147 36.8618 38.4346 42.9759 30.3193 45.0748C29.1864 45.3713 27.8685 45.4854 25.7183 45.4854C22.204 45.4854 20.0075 45.0063 16.8169 43.5462L14.8285 42.6337L10.9211 43.5691C8.79405 44.071 7.01377 44.4588 6.96753 44.4132C6.9444 44.3903 7.26809 42.5881 7.7305 40.4208L8.56284 36.4968L7.59178 34.4436C6.0427 31.1584 5.64965 29.379 5.62653 25.6604C5.62653 22.1699 5.90398 20.687 7.12937 17.744C9.25646 12.6338 13.9962 8.32199 19.3139 6.63378C22.7589 5.51591 25.1172 5.28777 28.3078 5.72123Z" fill="white"/>
<path d="M16.2153 13.6375C15.2443 14.2535 13.8339 15.8732 13.3021 17.0595C12.4698 18.8618 12.8166 22.261 14.0882 24.7477C16.146 28.7173 21.2556 33.7135 25.6485 36.0405C28.3305 37.4321 30.3189 37.934 32.8621 37.8199C35.1742 37.7287 36.3764 37.2496 37.6481 35.8808C39.3821 34.0557 39.8676 32.6641 39.0815 31.7515C38.6654 31.2952 33.5789 29.6527 32.5384 29.6527C32.2841 29.6527 31.498 30.1546 30.8044 30.7933C29.3709 32.0709 28.8391 32.185 27.475 31.4777C25.6485 30.5652 21.4406 26.8694 19.8684 24.7705C19.1285 23.8124 19.221 22.877 20.1689 21.6907C20.6313 21.1204 21.0475 20.4588 21.1169 20.185C21.2556 19.6147 19.1285 14.5044 18.4811 13.8656C17.8569 13.2497 17.0014 13.1584 16.2153 13.6375Z" fill="white"/>
</svg>
